<?xml version="1.0" standalone="no"?>
<!DOCTYPE svg PUBLIC "-//W3C//DTD SVG 20010904//EN"
 "http://www.w3.org/TR/2001/REC-SVG-20010904/DTD/svg10.dtd">
<svg version="1.0" xmlns="http://www.w3.org/2000/svg"
 width="230.000000pt" height="230.000000pt" viewBox="0 0 230.000000 230.000000"
 preserveAspectRatio="xMidYMid meet">
<metadata>
Created by potrace 1.14, written by Peter Selinger 2001-2017
</metadata>
<g transform="translate(0.000000,230.000000) scale(0.100000,-0.100000)"
fill="#000000" stroke="none">
<path d="M1088 2245 c-2 -2 -35 -6 -74 -9 -280 -26 -583 -196 -770 -432 -234
-296 -305 -715 -183 -1078 94 -280 304 -521 572 -656 88 -44 106 -50 163 -50
54 0 64 3 65 18 1 9 2 64 3 122 l1 106 -110 -1 c-157 0 -229 34 -271 128 -33
74 -84 147 -124 175 -21 15 -43 35 -49 45 -10 14 -7 19 15 27 61 24 140 -18
205 -107 23 -32 54 -68 68 -80 53 -46 154 -60 237 -33 26 9 34 18 43 54 6 23
21 58 35 78 l24 36 -51 7 c-133 18 -271 83 -341 159 -48 53 -94 149 -111 232
-3 16 -9 71 -12 121 -7 123 14 213 71 297 41 61 41 62 30 112 -13 59 -10 141
9 204 11 39 17 45 42 48 48 6 168 -38 255 -93 19 -12 42 -21 50 -19 8 1 45 9
81 17 86 18 273 19 372 2 42 -8 82 -17 87 -20 6 -4 43 12 82 35 83 48 173 80
222 80 32 0 36 -3 46 -37 19 -62 23 -167 10 -222 -10 -44 -10 -53 4 -66 95
-95 129 -329 74 -505 -39 -127 -118 -224 -224 -278 -56 -28 -206 -72 -246 -72
-23 0 -23 -5 2 -38 40 -54 48 -109 48 -317 0 -123 4 -201 10 -207 16 -16 132
-3 182 20 65 31 174 95 190 112 3 3 23 18 45 35 66 49 177 167 232 248 95 139
161 302 188 467 13 80 14 322 1 375 -2 11 -12 50 -20 87 -77 323 -312 612
-616 756 -123 58 -182 78 -282 97 -64 13 -272 27 -280 20z"/>
</g>
</svg>
